<mxfile host="app.diagrams.net" modified="2023-03-30T19:23:40.374Z" agent="Mozilla/5.0 (Windows NT 10.0; Win64; x64) AppleWebKit/537.36 (KHTML, like Gecko) Chrome/111.0.0.0 Safari/537.36" etag="Pc_SM1j8p5cSTcmwRkx9" version="21.1.2" type="device">
  <diagram id="4pnwxT8Jr6PgjWFXuMfJ" name="Page-1">
    <mxGraphModel dx="1290" dy="581" grid="1" gridSize="10" guides="1" tooltips="1" connect="1" arrows="1" fold="1" page="1" pageScale="1" pageWidth="850" pageHeight="1100" math="0" shadow="0">
      <root>
        <mxCell id="0" />
        <mxCell id="1" parent="0" />
        <mxCell id="FR_ScqxF3M0aErKBmypg-3" value="Actor" style="shape=umlActor;verticalLabelPosition=bottom;verticalAlign=top;html=1;outlineConnect=0;" parent="1" vertex="1">
          <mxGeometry x="80" y="220" width="40" height="80" as="geometry" />
        </mxCell>
        <mxCell id="FR_ScqxF3M0aErKBmypg-5" value="" style="swimlane;startSize=0;" parent="1" vertex="1">
          <mxGeometry x="220" width="420" height="600" as="geometry">
            <mxRectangle x="220" y="-40" width="50" height="40" as="alternateBounds" />
          </mxGeometry>
        </mxCell>
        <mxCell id="FR_ScqxF3M0aErKBmypg-6" value="&lt;font size=&quot;3&quot;&gt;New game/Main menu&lt;/font&gt;" style="ellipse;whiteSpace=wrap;html=1;" parent="FR_ScqxF3M0aErKBmypg-5" vertex="1">
          <mxGeometry x="50" width="230" height="130" as="geometry" />
        </mxCell>
        <mxCell id="FR_ScqxF3M0aErKBmypg-7" value="" style="endArrow=none;html=1;rounded=0;entryX=0.118;entryY=0.78;entryDx=0;entryDy=0;entryPerimeter=0;" parent="FR_ScqxF3M0aErKBmypg-5" target="FR_ScqxF3M0aErKBmypg-6" edge="1">
          <mxGeometry width="50" height="50" relative="1" as="geometry">
            <mxPoint x="-90" y="260" as="sourcePoint" />
            <mxPoint x="30" y="150" as="targetPoint" />
          </mxGeometry>
        </mxCell>
        <mxCell id="FR_ScqxF3M0aErKBmypg-8" value="Gameplay" style="ellipse;whiteSpace=wrap;html=1;fontSize=24;" parent="FR_ScqxF3M0aErKBmypg-5" vertex="1">
          <mxGeometry x="50" y="140" width="230" height="140" as="geometry" />
        </mxCell>
        <mxCell id="FR_ScqxF3M0aErKBmypg-10" value="" style="endArrow=none;html=1;rounded=0;fontSize=24;entryX=0.043;entryY=0.708;entryDx=0;entryDy=0;entryPerimeter=0;" parent="FR_ScqxF3M0aErKBmypg-5" target="FR_ScqxF3M0aErKBmypg-11" edge="1">
          <mxGeometry width="50" height="50" relative="1" as="geometry">
            <mxPoint x="270" y="180" as="sourcePoint" />
            <mxPoint x="300" y="160" as="targetPoint" />
          </mxGeometry>
        </mxCell>
        <mxCell id="FR_ScqxF3M0aErKBmypg-11" value="&lt;font style=&quot;font-size: 14px;&quot;&gt;Renovation phase&lt;/font&gt;" style="ellipse;whiteSpace=wrap;html=1;fontSize=24;" parent="FR_ScqxF3M0aErKBmypg-5" vertex="1">
          <mxGeometry x="300" y="100" width="120" height="80" as="geometry" />
        </mxCell>
        <mxCell id="FR_ScqxF3M0aErKBmypg-12" value="&lt;font style=&quot;font-size: 14px;&quot;&gt;Dining phase&lt;/font&gt;" style="ellipse;whiteSpace=wrap;html=1;fontSize=6;" parent="FR_ScqxF3M0aErKBmypg-5" vertex="1">
          <mxGeometry x="300" y="220" width="120" height="80" as="geometry" />
        </mxCell>
        <mxCell id="FR_ScqxF3M0aErKBmypg-13" value="" style="endArrow=none;html=1;rounded=0;fontSize=14;" parent="FR_ScqxF3M0aErKBmypg-5" edge="1">
          <mxGeometry width="50" height="50" relative="1" as="geometry">
            <mxPoint x="270" y="240" as="sourcePoint" />
            <mxPoint x="300" y="260" as="targetPoint" />
          </mxGeometry>
        </mxCell>
        <mxCell id="FR_ScqxF3M0aErKBmypg-15" value="&lt;font style=&quot;font-size: 24px;&quot;&gt;Gameplay settings&lt;/font&gt;" style="ellipse;whiteSpace=wrap;html=1;fontSize=14;" parent="FR_ScqxF3M0aErKBmypg-5" vertex="1">
          <mxGeometry x="50" y="300" width="230" height="140" as="geometry" />
        </mxCell>
        <mxCell id="FR_ScqxF3M0aErKBmypg-16" value="" style="endArrow=none;html=1;rounded=0;fontSize=24;exitX=-0.014;exitY=0.404;exitDx=0;exitDy=0;exitPerimeter=0;" parent="FR_ScqxF3M0aErKBmypg-5" source="FR_ScqxF3M0aErKBmypg-15" edge="1">
          <mxGeometry width="50" height="50" relative="1" as="geometry">
            <mxPoint x="20" y="390" as="sourcePoint" />
            <mxPoint x="-90" y="290" as="targetPoint" />
          </mxGeometry>
        </mxCell>
        <mxCell id="w1QGfDawAT_3W2Agy3kS-4" value="" style="endArrow=classic;html=1;rounded=0;exitX=0.828;exitY=0.916;exitDx=0;exitDy=0;exitPerimeter=0;" edge="1" parent="FR_ScqxF3M0aErKBmypg-5" source="FR_ScqxF3M0aErKBmypg-8" target="FR_ScqxF3M0aErKBmypg-15">
          <mxGeometry width="50" height="50" relative="1" as="geometry">
            <mxPoint x="310" y="410" as="sourcePoint" />
            <mxPoint x="350" y="380" as="targetPoint" />
          </mxGeometry>
        </mxCell>
        <mxCell id="w1QGfDawAT_3W2Agy3kS-6" value="" style="endArrow=classic;html=1;rounded=0;exitX=0.786;exitY=0.931;exitDx=0;exitDy=0;exitPerimeter=0;entryX=0.835;entryY=0.104;entryDx=0;entryDy=0;entryPerimeter=0;" edge="1" parent="FR_ScqxF3M0aErKBmypg-5" source="FR_ScqxF3M0aErKBmypg-6" target="FR_ScqxF3M0aErKBmypg-8">
          <mxGeometry width="50" height="50" relative="1" as="geometry">
            <mxPoint x="180" y="330" as="sourcePoint" />
            <mxPoint x="230" y="280" as="targetPoint" />
          </mxGeometry>
        </mxCell>
        <mxCell id="w1QGfDawAT_3W2Agy3kS-7" value="" style="endArrow=classic;html=1;rounded=0;entryX=0.104;entryY=0.167;entryDx=0;entryDy=0;entryPerimeter=0;" edge="1" parent="FR_ScqxF3M0aErKBmypg-5" target="FR_ScqxF3M0aErKBmypg-15">
          <mxGeometry width="50" height="50" relative="1" as="geometry">
            <mxPoint x="74" y="110" as="sourcePoint" />
            <mxPoint x="80" y="110" as="targetPoint" />
            <Array as="points">
              <mxPoint x="20" y="210" />
            </Array>
          </mxGeometry>
        </mxCell>
        <mxCell id="w1QGfDawAT_3W2Agy3kS-8" value="Include" style="text;html=1;strokeColor=none;fillColor=none;align=center;verticalAlign=middle;whiteSpace=wrap;rounded=0;" vertex="1" parent="FR_ScqxF3M0aErKBmypg-5">
          <mxGeometry x="50" y="120" width="60" height="30" as="geometry" />
        </mxCell>
        <mxCell id="FR_ScqxF3M0aErKBmypg-9" value="" style="endArrow=none;html=1;rounded=0;fontSize=24;entryX=0.01;entryY=0.621;entryDx=0;entryDy=0;entryPerimeter=0;" parent="1" target="FR_ScqxF3M0aErKBmypg-8" edge="1">
          <mxGeometry width="50" height="50" relative="1" as="geometry">
            <mxPoint x="130" y="280" as="sourcePoint" />
            <mxPoint x="190" y="230" as="targetPoint" />
          </mxGeometry>
        </mxCell>
        <mxCell id="w1QGfDawAT_3W2Agy3kS-1" value="Actor" style="shape=umlActor;verticalLabelPosition=bottom;verticalAlign=top;html=1;outlineConnect=0;" vertex="1" parent="1">
          <mxGeometry x="710" y="150" width="50" height="90" as="geometry" />
        </mxCell>
        <mxCell id="w1QGfDawAT_3W2Agy3kS-2" value="" style="endArrow=none;html=1;rounded=0;exitX=1.01;exitY=0.231;exitDx=0;exitDy=0;exitPerimeter=0;" edge="1" parent="1" source="FR_ScqxF3M0aErKBmypg-5" target="w1QGfDawAT_3W2Agy3kS-1">
          <mxGeometry width="50" height="50" relative="1" as="geometry">
            <mxPoint x="660" y="210" as="sourcePoint" />
            <mxPoint x="710" y="160" as="targetPoint" />
          </mxGeometry>
        </mxCell>
        <mxCell id="w1QGfDawAT_3W2Agy3kS-3" value="" style="endArrow=none;html=1;rounded=0;" edge="1" parent="1" target="w1QGfDawAT_3W2Agy3kS-1">
          <mxGeometry width="50" height="50" relative="1" as="geometry">
            <mxPoint x="640" y="250" as="sourcePoint" />
            <mxPoint x="690" y="200" as="targetPoint" />
          </mxGeometry>
        </mxCell>
        <mxCell id="w1QGfDawAT_3W2Agy3kS-10" value="Include" style="text;html=1;align=center;verticalAlign=middle;resizable=0;points=[];autosize=1;strokeColor=none;fillColor=none;" vertex="1" parent="1">
          <mxGeometry x="440" y="275" width="60" height="30" as="geometry" />
        </mxCell>
        <mxCell id="w1QGfDawAT_3W2Agy3kS-12" value="Include" style="text;html=1;align=center;verticalAlign=middle;resizable=0;points=[];autosize=1;strokeColor=none;fillColor=none;" vertex="1" parent="1">
          <mxGeometry x="440" y="115" width="60" height="30" as="geometry" />
        </mxCell>
      </root>
    </mxGraphModel>
  </diagram>
</mxfile>
